<svg width="15" height="15" viewBox="0 0 15 15" fill="none" xmlns="http://www.w3.org/2000/svg">
<g clip-path="url(#clip0_1545_13525)">
<path d="M14.3473 14.23H13.8473C13.3169 14.23 12.8081 14.0193 12.4331 13.6442C12.058 13.2691 11.8473 12.7604 11.8473 12.23C11.8473 12.7604 11.6366 13.2691 11.2615 13.6442C10.8864 14.0193 10.3777 14.23 9.84729 14.23C9.31686 14.23 8.80815 14.0193 8.43308 13.6442C8.058 13.2691 7.84729 12.7604 7.84729 12.23C7.84729 12.7604 7.63658 13.2691 7.2615 13.6442C6.88643 14.0193 6.37772 14.23 5.84729 14.23C5.31686 14.23 4.80815 14.0193 4.43308 13.6442C4.058 13.2691 3.84729 12.7604 3.84729 12.23C3.84729 12.7604 3.63658 13.2691 3.2615 13.6442C2.88643 14.0193 2.37772 14.23 1.84729 14.23H1.34729" stroke="#000001" stroke-linecap="round" stroke-linejoin="round"/>
<path d="M10.8473 10.2301C10.3323 9.6039 9.68495 9.09959 8.95185 8.75335C8.21874 8.40711 7.41805 8.22754 6.60729 8.22754C5.79654 8.22754 4.99585 8.40711 4.26274 8.75335C3.52964 9.09959 2.88232 9.6039 2.36729 10.2301" stroke="#000001" stroke-linecap="round" stroke-linejoin="round"/>
<path d="M7.34729 8.28022C7.40729 6.02022 8.09729 3.96021 9.59729 3.22021" stroke="#000001" stroke-linecap="round" stroke-linejoin="round"/>
<path d="M6.6073 1.3201C7.25553 1.19246 7.92803 1.31836 8.48619 1.67186C9.04434 2.02536 9.44561 2.57951 9.6073 3.2201" stroke="#000001" stroke-linecap="round" stroke-linejoin="round"/>
<path d="M13.2573 3.59002C12.797 3.09304 12.1712 2.78121 11.4972 2.71308C10.8233 2.64495 10.1477 2.82522 9.59729 3.22002" stroke="#000001" stroke-linecap="round" stroke-linejoin="round"/>
<path d="M5.92729 4.29002C6.31914 3.71272 6.89996 3.29006 7.56979 3.09477C8.23963 2.89947 8.95659 2.94376 9.59729 3.22002C10.24 3.37719 10.7964 3.77799 11.149 4.33777C11.5017 4.89755 11.623 5.57248 11.4873 6.22002" stroke="#000001" stroke-linecap="round" stroke-linejoin="round"/>
</g>
<defs>
<clipPath id="clip0_1545_13525">
<rect width="14" height="14" fill="white" transform="translate(0.84729 0.75)"/>
</clipPath>
</defs>
</svg>
