<svg width="15" height="15" viewBox="0 0 15 15" fill="none" xmlns="http://www.w3.org/2000/svg">
<g clip-path="url(#clip0_1545_13595)">
<path d="M2.61729 9.25C1.79476 8.20734 1.34738 6.91804 1.34729 5.59V2.33C2.71803 1.62068 4.2389 1.25049 5.78229 1.25049C7.32568 1.25049 8.84655 1.62068 10.2173 2.33" stroke="#000001" stroke-linecap="round" stroke-linejoin="round"/>
<path d="M8.6373 14.1901C8.28735 14.2692 7.92363 14.2642 7.57598 14.1755C7.22833 14.0869 6.90664 13.9171 6.6373 13.6801V13.6801C5.70155 12.8734 5.00862 11.8223 4.636 10.6444C4.26337 9.4665 4.22574 8.20815 4.5273 7.01006L5.2573 4.09006C6.84278 3.68796 8.50329 3.68578 10.0898 4.08372C11.6764 4.48166 13.1393 5.26728 14.3473 6.37006L13.6173 9.28006C13.323 10.4792 12.7017 11.5732 11.8224 12.4401C10.9431 13.307 9.84051 13.9128 8.6373 14.1901V14.1901Z" stroke="#000001" stroke-linecap="round" stroke-linejoin="round"/>
<path d="M6.45729 7.26006C6.58344 7.12805 6.74333 7.0331 6.91961 6.9855C7.09589 6.9379 7.28184 6.93948 7.45729 6.99006C7.62902 7.03046 7.787 7.11557 7.91521 7.23675C8.04342 7.35794 8.13729 7.51088 8.18729 7.68006" stroke="#000001" stroke-linecap="round" stroke-linejoin="round"/>
<path d="M10.4173 8.24992C10.5394 8.1187 10.6945 8.02271 10.8665 7.972C11.0384 7.92129 11.2208 7.91773 11.3946 7.96168C11.5684 8.00564 11.7271 8.0955 11.8543 8.22186C11.9814 8.34821 12.0723 8.50642 12.1173 8.67992" stroke="#000001" stroke-linecap="round" stroke-linejoin="round"/>
</g>
<defs>
<clipPath id="clip0_1545_13595">
<rect width="14" height="14" fill="white" transform="translate(0.84729 0.75)"/>
</clipPath>
</defs>
</svg>
