<svg width="15" height="15" viewBox="0 0 15 15" fill="none" xmlns="http://www.w3.org/2000/svg">
<g clip-path="url(#clip0_1545_13462)">
<path d="M12.3473 1.25H3.34729C2.79501 1.25 2.34729 1.69772 2.34729 2.25V11.75C2.34729 12.3023 2.79501 12.75 3.34729 12.75H12.3473C12.8996 12.75 13.3473 12.3023 13.3473 11.75V2.25C13.3473 1.69772 12.8996 1.25 12.3473 1.25Z" stroke="#000001" stroke-linecap="round" stroke-linejoin="round"/>
<path d="M4.34729 12.75V14.25" stroke="#000001" stroke-linecap="round" stroke-linejoin="round"/>
<path d="M11.3473 12.75V14.25" stroke="#000001" stroke-linecap="round" stroke-linejoin="round"/>
<path d="M2.34729 7.75H13.3473" stroke="#000001" stroke-linecap="round" stroke-linejoin="round"/>
<path d="M4.84729 10.75C5.12343 10.75 5.34729 10.5261 5.34729 10.25C5.34729 9.97386 5.12343 9.75 4.84729 9.75C4.57115 9.75 4.34729 9.97386 4.34729 10.25C4.34729 10.5261 4.57115 10.75 4.84729 10.75Z" stroke="#000001" stroke-linecap="round" stroke-linejoin="round"/>
<path d="M10.8473 10.75C11.1234 10.75 11.3473 10.5261 11.3473 10.25C11.3473 9.97386 11.1234 9.75 10.8473 9.75C10.5711 9.75 10.3473 9.97386 10.3473 10.25C10.3473 10.5261 10.5711 10.75 10.8473 10.75Z" stroke="#000001" stroke-linecap="round" stroke-linejoin="round"/>
</g>
<defs>
<clipPath id="clip0_1545_13462">
<rect width="14" height="14" fill="white" transform="translate(0.84729 0.75)"/>
</clipPath>
</defs>
</svg>
