<svg width="15" height="15" viewBox="0 0 15 15" fill="none" xmlns="http://www.w3.org/2000/svg">
<g clip-path="url(#clip0_1545_12720)">
<path d="M1.43729 6.5H13.8473" stroke="#000001" stroke-linecap="round" stroke-linejoin="round"/>
<path d="M9.93729 1.52L9.84729 1.5L1.59729 6.35C1.52592 6.39095 1.46577 6.44889 1.42216 6.51867C1.37855 6.58844 1.35283 6.6679 1.34729 6.75V8.5C2.34729 8.5 3.84729 8.5 3.84729 10.25C3.84729 12 2.31729 12 1.34729 12V13.5C1.34729 13.6326 1.39997 13.7598 1.49374 13.8536C1.5875 13.9473 1.71468 14 1.84729 14H13.8473C13.9799 14 14.1071 13.9473 14.2008 13.8536C14.2946 13.7598 14.3473 13.6326 14.3473 13.5V6.5C14.201 5.32172 13.7013 4.21535 12.9142 3.32645C12.127 2.43755 11.0892 1.80778 9.93729 1.52V1.52Z" stroke="#000001" stroke-linecap="round" stroke-linejoin="round"/>
<path d="M10.8473 9.5C11.1234 9.5 11.3473 9.27614 11.3473 9C11.3473 8.72386 11.1234 8.5 10.8473 8.5C10.5711 8.5 10.3473 8.72386 10.3473 9C10.3473 9.27614 10.5711 9.5 10.8473 9.5Z" stroke="#000001" stroke-linecap="round" stroke-linejoin="round"/>
<path d="M7.34729 11.5C7.62343 11.5 7.84729 11.2761 7.84729 11C7.84729 10.7239 7.62343 10.5 7.34729 10.5C7.07115 10.5 6.84729 10.7239 6.84729 11C6.84729 11.2761 7.07115 11.5 7.34729 11.5Z" stroke="#000001" stroke-linecap="round" stroke-linejoin="round"/>
</g>
<defs>
<clipPath id="clip0_1545_12720">
<rect width="14" height="14" fill="white" transform="translate(0.84729 0.75)"/>
</clipPath>
</defs>
</svg>
