<svg width="15" height="15" viewBox="0 0 15 15" fill="none" xmlns="http://www.w3.org/2000/svg">
<g clip-path="url(#clip0_1545_13470)">
<path d="M13.3473 11.2499C13.6125 11.2499 13.8669 11.1445 14.0544 10.957C14.2419 10.7695 14.3473 10.5151 14.3473 10.2499V8.2499C14.3473 7.98468 14.2419 7.73032 14.0544 7.54279C13.8669 7.35525 13.6125 7.2499 13.3473 7.2499H11.8473L11.0773 4.92989C11.0077 4.72291 10.8723 4.5444 10.6917 4.42161C10.5112 4.29882 10.2954 4.23851 10.0773 4.2499H6.06729C5.84922 4.23851 5.63343 4.29882 5.45286 4.42161C5.27229 4.5444 5.13687 4.72291 5.06729 4.92989L4.34729 7.2499H2.34729C2.08207 7.2499 1.82772 7.35525 1.64018 7.54279C1.45265 7.73032 1.34729 7.98468 1.34729 8.2499V10.2499C1.34729 10.5151 1.45265 10.7695 1.64018 10.957C1.82772 11.1445 2.08207 11.2499 2.34729 11.2499" stroke="#000001" stroke-linecap="round" stroke-linejoin="round"/>
<path d="M4.34729 13.25C5.45186 13.25 6.34729 12.3546 6.34729 11.25C6.34729 10.1454 5.45186 9.25 4.34729 9.25C3.24272 9.25 2.34729 10.1454 2.34729 11.25C2.34729 12.3546 3.24272 13.25 4.34729 13.25Z" stroke="#000001" stroke-linecap="round" stroke-linejoin="round"/>
<path d="M11.3473 13.25C12.4519 13.25 13.3473 12.3546 13.3473 11.25C13.3473 10.1454 12.4519 9.25 11.3473 9.25C10.2427 9.25 9.34729 10.1454 9.34729 11.25C9.34729 12.3546 10.2427 13.25 11.3473 13.25Z" stroke="#000001" stroke-linecap="round" stroke-linejoin="round"/>
<path d="M6.34729 11.25H9.34729" stroke="#000001" stroke-linecap="round" stroke-linejoin="round"/>
<path d="M7.84729 4.25V2.25" stroke="#000001" stroke-linecap="round" stroke-linejoin="round"/>
</g>
<defs>
<clipPath id="clip0_1545_13470">
<rect width="14" height="14" fill="white" transform="translate(0.84729 0.75)"/>
</clipPath>
</defs>
</svg>
