<svg width="15" height="14" viewBox="0 0 15 14" fill="none" xmlns="http://www.w3.org/2000/svg">
<path d="M5.51996 12.2399L1.01996 13.4999L2.27996 8.9999L10.52 0.799899C10.6131 0.704653 10.7243 0.628974 10.8471 0.577306C10.9699 0.525639 11.1017 0.499023 11.235 0.499023C11.3682 0.499023 11.5 0.525639 11.6228 0.577306C11.7456 0.628974 11.8568 0.704653 11.95 0.799899L13.72 2.5799C13.8137 2.67286 13.8881 2.78346 13.9388 2.90532C13.9896 3.02718 14.0158 3.15789 14.0158 3.2899C14.0158 3.42191 13.9896 3.55262 13.9388 3.67448C13.8881 3.79633 13.8137 3.90694 13.72 3.9999L5.51996 12.2399Z" stroke="#000001" stroke-linecap="round" stroke-linejoin="round"/>
</svg>
