<?xml version="1.0" ?><svg data-name="Donuts Chart" id="Donuts_Chart" viewBox="0 0 24 24" xmlns="http://www.w3.org/2000/svg"><defs><style>.cls-1{fill:#96ccee;}.cls-2{fill:#ffeabb;}.cls-3{fill:#f7bf75;}.cls-4{fill:#6f73d5;}</style></defs><path class="cls-1" d="M10.73,4.22a8.89,8.89,0,1,0,8.91,8.89H14.17a3.42,3.42,0,1,1-3.52-3.42h.1V4.22Z"/><path class="cls-2" d="M13,2V7.47a3.42,3.42,0,0,1,3.43,3.42h5.46A8.89,8.89,0,0,0,13,2"/><path class="cls-3" d="M13,2v.64a8.88,8.88,0,0,1,5.59,8.25h3.3A8.89,8.89,0,0,0,13,2"/><path class="cls-4" d="M16.92,13.11A8.88,8.88,0,0,1,9.4,21.89a8.68,8.68,0,0,0,1.35.11,8.89,8.89,0,0,0,8.89-8.89Z"/><path d="M19.64,12.61H14.17a.51.51,0,0,0-.5.5,2.92,2.92,0,1,1-2.92-2.92.5.5,0,0,0,.5-.5V4.22a.5.5,0,0,0-.5-.5h0a9.39,9.39,0,1,0,9.41,9.39A.5.5,0,0,0,19.64,12.61ZM10.75,21.5a8.39,8.39,0,0,1-.5-16.76V9.22a3.89,3.89,0,0,0-3.42,3.89,3.92,3.92,0,0,0,7.81.5h4.48A8.4,8.4,0,0,1,10.75,21.5Z"/><path d="M13,1.5a.5.5,0,0,0-.5.5V7.47A.51.51,0,0,0,13,8a2.93,2.93,0,0,1,2.93,2.92.5.5,0,0,0,.5.5h5.46a.5.5,0,0,0,.5-.5A9.4,9.4,0,0,0,13,1.5Zm3.9,8.89A3.94,3.94,0,0,0,13.47,7V2.52a8.4,8.4,0,0,1,7.88,7.87Z"/></svg>